<svg width="16" height="16" viewBox="0 0 16 16" fill="none" xmlns="http://www.w3.org/2000/svg">
<path d="M15.5 8H3V7.5C3 7.4337 2.97366 7.37011 2.92678 7.32322C2.87989 7.27634 2.8163 7.25 2.75 7.25H2.5V6.5H3V6.75C3 6.8163 3.02634 6.87989 3.07322 6.92678C3.12011 6.97366 3.1837 7 3.25 7C3.3163 7 3.37989 6.97366 3.42678 6.92678C3.47366 6.87989 3.5 6.8163 3.5 6.75V5.75C3.5 5.6837 3.47366 5.62011 3.42678 5.57322C3.37989 5.52634 3.3163 5.5 3.25 5.5C3.1837 5.5 3.12011 5.52634 3.07322 5.57322C3.02634 5.62011 3 5.6837 3 5.75V6H2.5V3C2.50025 2.73486 2.60568 2.48065 2.79317 2.29317C2.98065 2.10568 3.23486 2.00025 3.5 2H4.5C4.76514 2.00025 5.01935 2.10568 5.20683 2.29317C5.39431 2.48065 5.49975 2.73486 5.5 3V3.02125C5.15071 3.08073 4.83369 3.26176 4.60495 3.53235C4.37622 3.80294 4.25049 4.14568 4.25 4.5C4.25 4.5663 4.27634 4.62989 4.32322 4.67678C4.37011 4.72366 4.4337 4.75 4.5 4.75H7C7.0663 4.75 7.12989 4.72366 7.17678 4.67678C7.22366 4.62989 7.25 4.5663 7.25 4.5C7.24951 4.14568 7.12378 3.80294 6.89505 3.53235C6.66631 3.26176 6.34929 3.08073 6 3.02125V3C5.99958 2.6023 5.84141 2.22102 5.56019 1.93981C5.27898 1.65859 4.8977 1.50042 4.5 1.5H3.5C3.1023 1.50042 2.72102 1.65859 2.43981 1.93981C2.15859 2.22102 2.00042 2.6023 2 3V7.25H1.75C1.6837 7.25 1.62011 7.27634 1.57322 7.32322C1.52634 7.37011 1.5 7.4337 1.5 7.5V8H0.5C0.433696 8 0.370107 8.02634 0.323223 8.07322C0.276339 8.12011 0.25 8.1837 0.25 8.25V9C0.25 9.0663 0.276339 9.12989 0.323223 9.17678C0.370107 9.22366 0.433696 9.25 0.5 9.25H1.25V12.25C1.25049 12.6043 1.37622 12.9471 1.60495 13.2176C1.83369 13.4882 2.15071 13.6693 2.5 13.7288V14.25C2.5 14.3163 2.52634 14.3799 2.57322 14.4268C2.62011 14.4737 2.6837 14.5 2.75 14.5C2.8163 14.5 2.87989 14.4737 2.92678 14.4268C2.97366 14.3799 3 14.3163 3 14.25V13.75H13V14.25C13 14.3163 13.0263 14.3799 13.0732 14.4268C13.1201 14.4737 13.1837 14.5 13.25 14.5C13.3163 14.5 13.3799 14.4737 13.4268 14.4268C13.4737 14.3799 13.5 14.3163 13.5 14.25V13.7288C13.8493 13.6693 14.1663 13.4882 14.395 13.2176C14.6238 12.9471 14.7495 12.6043 14.75 12.25V9.25H15.5C15.5663 9.25 15.6299 9.22366 15.6768 9.17678C15.7237 9.12989 15.75 9.0663 15.75 9V8.25C15.75 8.1837 15.7237 8.12011 15.6768 8.07322C15.6299 8.02634 15.5663 8 15.5 8ZM5.75 3.5C5.97165 3.50027 6.18695 3.57404 6.3622 3.70975C6.53744 3.84547 6.66272 4.03547 6.71844 4.25H4.78156C4.83728 4.03547 4.96256 3.84547 5.1378 3.70975C5.31305 3.57404 5.52835 3.50027 5.75 3.5ZM2 7.75H2.5V8H2V7.75ZM14.25 12.25C14.2498 12.5151 14.1443 12.7694 13.9568 12.9568C13.7694 13.1443 13.5151 13.2498 13.25 13.25H2.75C2.48486 13.2498 2.23065 13.1443 2.04317 12.9568C1.85568 12.7694 1.75025 12.5151 1.75 12.25V9.25H14.25V12.25ZM15.25 8.75H0.75V8.5H15.25V8.75Z" fill="#666666"/>
</svg>
