<svg width="16" height="16" viewBox="0 0 16 16" fill="none" xmlns="http://www.w3.org/2000/svg">
<path d="M13.3333 8.33328H6.65104C6.68286 8.29128 6.72184 8.25666 6.75 8.21121C6.90496 7.95792 6.99132 7.66864 7.00056 7.37184C7.00981 7.07505 6.94163 6.78096 6.80273 6.51851C6.66236 6.25612 6.45215 6.03767 6.19535 5.88732C5.93855 5.73697 5.64516 5.66059 5.34765 5.66662H2.66667C2.30489 5.66785 1.95354 5.78791 1.66667 6.00833V1.99996C1.66667 1.91155 1.63155 1.82677 1.56904 1.76426C1.50652 1.70174 1.42174 1.66663 1.33333 1.66663C1.24493 1.66663 1.16014 1.70174 1.09763 1.76426C1.03512 1.82677 1 1.91155 1 1.99996V13.9999C1 14.0883 1.03512 14.1731 1.09763 14.2356C1.16014 14.2982 1.24493 14.3333 1.33333 14.3333C1.42174 14.3333 1.50652 14.2982 1.56904 14.2356C1.63155 14.1731 1.66667 14.0883 1.66667 13.9999V11.6666H14.3333V13.9999C14.3333 14.0883 14.3684 14.1731 14.431 14.2356C14.4935 14.2982 14.5783 14.3333 14.6667 14.3333C14.7551 14.3333 14.8398 14.2982 14.9024 14.2356C14.9649 14.1731 15 14.0883 15 13.9999V9.99995C14.9995 9.55806 14.8238 9.13441 14.5113 8.82195C14.1989 8.50949 13.7752 8.33375 13.3333 8.33328ZM2.66667 6.33329H5.34765C5.52102 6.32694 5.69278 6.36852 5.84405 6.45346C5.99532 6.5384 6.12024 6.6634 6.20508 6.81473C6.29249 6.97579 6.33648 7.15683 6.33272 7.34004C6.32895 7.52325 6.27755 7.70232 6.18359 7.85965C6.09433 8.00484 5.96926 8.12466 5.82037 8.2076C5.67147 8.29054 5.50376 8.33382 5.33333 8.33328H2.66667C2.40145 8.33328 2.1471 8.22793 1.95956 8.04039C1.77202 7.85286 1.66667 7.5985 1.66667 7.33329C1.66667 7.06807 1.77202 6.81372 1.95956 6.62618C2.1471 6.43864 2.40145 6.33329 2.66667 6.33329ZM14.3333 10.9999H1.66667V8.99995H13.3333C13.5985 9.00024 13.8526 9.10569 14.0401 9.29316C14.2276 9.48064 14.333 9.73482 14.3333 9.99995V10.9999Z" fill="#666666"/>
</svg>
