<svg width="16" height="16" viewBox="0 0 16 16" fill="none" xmlns="http://www.w3.org/2000/svg">
<path d="M15.3515 9.39248C15.2941 9.39248 15.2391 9.3697 15.1986 9.32915C15.158 9.2886 15.1353 9.23361 15.1353 9.17626V8.53409C15.1353 8.47675 15.158 8.42175 15.1986 8.3812C15.2391 8.34065 15.2941 8.31787 15.3515 8.31787C15.4088 8.31787 15.4638 8.34065 15.5044 8.3812C15.5449 8.42175 15.5677 8.47675 15.5677 8.53409V9.17626C15.5677 9.23361 15.5449 9.2886 15.5044 9.32915C15.4638 9.3697 15.4088 9.39248 15.3515 9.39248Z" fill="#666666"/>
<path d="M14.7029 15.5675H1.29748C1.06811 15.5675 0.848124 15.4764 0.68593 15.3142C0.523737 15.152 0.432617 14.932 0.432617 14.7026V1.29724C0.432617 1.06786 0.523737 0.84788 0.68593 0.685686C0.848124 0.523493 1.06811 0.432373 1.29748 0.432373H14.7029C14.9323 0.432373 15.1522 0.523493 15.3144 0.685686C15.4766 0.84788 15.5678 1.06786 15.5678 1.29724V4.87778C15.5678 4.93512 15.545 4.99012 15.5044 5.03067C15.4639 5.07122 15.4089 5.094 15.3515 5.094C15.2942 5.094 15.2392 5.07122 15.1987 5.03067C15.1581 4.99012 15.1353 4.93512 15.1353 4.87778V1.29724C15.1353 1.18255 15.0898 1.07256 15.0087 0.991462C14.9276 0.910365 14.8176 0.864806 14.7029 0.864806H1.29748C1.18279 0.864806 1.0728 0.910365 0.991706 0.991462C0.910609 1.07256 0.86505 1.18255 0.86505 1.29724V14.7026C0.86505 14.8173 0.910609 14.9273 0.991706 15.0084C1.0728 15.0895 1.18279 15.1351 1.29748 15.1351H14.7029C14.8176 15.1351 14.9276 15.0895 15.0087 15.0084C15.0898 14.9273 15.1353 14.8173 15.1353 14.7026V10.6897C15.1353 10.6323 15.1581 10.5773 15.1987 10.5368C15.2392 10.4962 15.2942 10.4735 15.3515 10.4735C15.4089 10.4735 15.4639 10.4962 15.5044 10.5368C15.545 10.5773 15.5678 10.6323 15.5678 10.6897V14.7026C15.5678 14.932 15.4766 15.152 15.3144 15.3142C15.1522 15.4764 14.9323 15.5675 14.7029 15.5675Z" fill="#666666"/>
<path d="M15.3515 7.23679C15.2941 7.23679 15.2391 7.21401 15.1986 7.17346C15.158 7.13291 15.1353 7.07792 15.1353 7.02057V6.39139C15.1353 6.33404 15.158 6.27905 15.1986 6.2385C15.2391 6.19795 15.2941 6.17517 15.3515 6.17517C15.4088 6.17517 15.4638 6.19795 15.5044 6.2385C15.5449 6.27905 15.5677 6.33404 15.5677 6.39139V7.02057C15.5677 7.07792 15.5449 7.13291 15.5044 7.17346C15.4638 7.21401 15.4088 7.23679 15.3515 7.23679Z" fill="#666666"/>
<path d="M8.95152 7.26497C8.90877 7.26497 8.86697 7.25228 8.83142 7.22852C8.79587 7.20476 8.76817 7.171 8.75181 7.13149C8.73545 7.09199 8.73116 7.04853 8.7395 7.00659C8.74784 6.96465 8.76843 6.92613 8.79866 6.89589L12.6041 3.09048C12.6449 3.05109 12.6995 3.0293 12.7562 3.02979C12.8129 3.03029 12.8671 3.05303 12.9072 3.09311C12.9473 3.1332 12.97 3.18743 12.9705 3.24412C12.971 3.30081 12.9492 3.35543 12.9098 3.39621L9.10439 7.20162C9.06385 7.24217 9.00886 7.26496 8.95152 7.26497Z" fill="#666666"/>
<path d="M12.7571 5.46222C12.6998 5.46222 12.6448 5.43944 12.6042 5.39889C12.5637 5.35834 12.5409 5.30335 12.5409 5.246V3.45941H10.7543C10.697 3.45941 10.642 3.43663 10.6014 3.39608C10.5609 3.35553 10.5381 3.30054 10.5381 3.24319C10.5381 3.18585 10.5609 3.13085 10.6014 3.09031C10.642 3.04976 10.697 3.02698 10.7543 3.02698H12.7571C12.8144 3.02698 12.8694 3.04976 12.91 3.09031C12.9505 3.13085 12.9733 3.18585 12.9733 3.24319V5.246C12.9733 5.30335 12.9505 5.35834 12.91 5.39889C12.8694 5.43944 12.8144 5.46222 12.7571 5.46222Z" fill="#666666"/>
<path d="M3.24303 12.973C3.20027 12.973 3.15847 12.9603 3.12293 12.9365C3.08738 12.9128 3.05967 12.879 3.04331 12.8395C3.02695 12.8 3.02267 12.7565 3.03101 12.7146C3.03935 12.6727 3.05993 12.6341 3.09016 12.6039L6.89557 8.79849C6.93635 8.7591 6.99096 8.73731 7.04765 8.7378C7.10434 8.73829 7.15857 8.76103 7.19866 8.80112C7.23875 8.84121 7.26149 8.89544 7.26198 8.95213C7.26248 9.00882 7.24068 9.06344 7.2013 9.10422L3.39589 12.9096C3.35535 12.9502 3.30037 12.973 3.24303 12.973Z" fill="#666666"/>
<path d="M5.24588 12.9731H3.24307C3.18573 12.9731 3.13073 12.9503 3.09018 12.9097C3.04964 12.8692 3.02686 12.8142 3.02686 12.7569V10.7541C3.02686 10.7257 3.03245 10.6975 3.04331 10.6713C3.05418 10.6451 3.07011 10.6212 3.09018 10.6012C3.11026 10.5811 3.1341 10.5652 3.16033 10.5543C3.18656 10.5434 3.21468 10.5378 3.24307 10.5378C3.27147 10.5378 3.29958 10.5434 3.32581 10.5543C3.35205 10.5652 3.37588 10.5811 3.39596 10.6012C3.41604 10.6212 3.43196 10.6451 3.44283 10.6713C3.4537 10.6975 3.45929 10.7257 3.45929 10.7541V12.5406H5.24588C5.30323 12.5406 5.35822 12.5634 5.39877 12.604C5.43932 12.6445 5.4621 12.6995 5.4621 12.7569C5.4621 12.8142 5.43932 12.8692 5.39877 12.9097C5.35822 12.9503 5.30323 12.9731 5.24588 12.9731Z" fill="#666666"/>
</svg>
